<svg version="1.0" xmlns="http://www.w3.org/2000/svg" width="600.000000pt" height="731.000000pt" viewBox="0 0 600.000000 731.000000" preserveAspectRatio="xMidYMid meet" style="width: 407.406px; height: auto;"> <g transform="translate(0.000000,731.000000) scale(0.100000,-0.100000)" fill="#000000" stroke="none"> <path d="M4738 7300 c-97 -29 -164 -161 -203 -400 -38 -235 -46 -432 -52 -1315 -3 -473 -7 -861 -8 -863 -2 -2 -43 10 -93 27 -130 43 -239 62 -398 68 -195 8 -419 -29 -579 -93 -56 -23 -76 -25 -275 -29 -431 -9 -1089 -42 -1800 -90 -724 -49 -1042 -95 -1195 -171 -78 -39 -108 -72 -126 -138 -7 -26 -6 -28 4 -15 11 15 14 14 24 -7 7 -15 7 -24 1 -24 -5 0 -6 -10 -2 -22 6 -20 5 -21 -10 -9 -14 12 -16 11 -16 -6 0 -41 44 -87 120 -125 85 -43 151 -62 295 -84 254 -39 428 -46 1333 -51 485 -3 882 -7 882 -9 0 -2 -6 -21 -14 -41 -62 -163 -140 -556 -186 -928 -33 -273 -80 -535 -169 -945 -55 -257 -80 -320 -182 -471 -152 -222 -229 -386 -229 -488 0 -43 4 -52 28 -70 38 -26 83 -93 87 -126 3 -32 -27 -64 -67 -72 -35 -7 -35 -17 -3 -49 37 -37 92 -57 133 -49 l34 6 -6 -36 c-6 -29 -29 -92 -43 -114 -1 -2 -22 6 -47 18 -40 20 -47 21 -78 8 -18 -8 -47 -26 -64 -40 -41 -35 -81 -49 -116 -42 -34 8 -36 -4 -5 -32 32 -30 61 -43 101 -45 35 -3 35 -3 29 -44 -7 -57 18 -102 115 -202 81 -82 100 -120 87 -162 -6 -19 -5 -20 13 -9 23 14 42 50 42 78 0 11 -16 53 -36 95 -62 130 -58 187 23 353 43 88 47 100 46 171 0 76 -13 124 -46 167 -26 34 -32 7 -9 -41 12 -25 20 -49 17 -54 -3 -5 -1 -11 3 -14 10 -6 10 -72 0 -81 -3 -3 -11 7 -18 22 -11 25 -17 28 -49 25 -30 -3 -43 2 -71 28 -19 18 -27 30 -17 26 10 -3 17 0 17 8 0 7 9 21 20 31 16 14 19 27 15 67 -4 39 -13 57 -42 89 -20 21 -43 39 -52 40 -11 0 -12 2 -3 6 10 4 9 8 -5 19 -12 8 -13 13 -5 14 9 0 10 5 4 16 -6 11 -3 33 8 65 10 26 16 50 14 52 -3 2 2 17 11 33 8 16 15 35 15 42 0 7 4 10 10 7 5 -3 10 0 10 8 0 8 7 20 15 27 8 7 13 16 10 20 -3 4 7 24 21 45 14 21 23 40 20 42 -3 3 0 11 7 19 21 23 32 38 64 86 24 37 33 45 41 35 11 -13 -4 -76 -21 -93 -4 -4 -7 -16 -7 -26 0 -10 -4 -18 -10 -18 -5 0 -7 -7 -4 -15 4 -8 1 -15 -7 -15 -7 0 -10 -2 -7 -5 3 -3 -5 -40 -18 -81 -28 -88 -33 -211 -10 -247 8 -12 19 -45 24 -74 7 -42 6 -55 -7 -67 -14 -15 -13 -16 4 -16 35 0 48 15 41 46 -4 16 -10 45 -15 64 -4 19 -13 46 -20 59 -7 13 -13 55 -13 95 1 75 -3 61 155 519 30 87 62 188 70 225 88 374 169 812 202 1102 39 333 107 661 189 910 14 41 24 75 23 76 -1 1 -411 4 -912 7 -715 3 -950 8 -1096 20 -462 40 -629 102 -629 234 0 110 112 170 410 217 104 16 241 33 335 41 33 2 112 9 175 15 167 14 768 54 985 65 61 3 130 8 155 10 101 11 768 36 1055 39 l180 2 130 47 c180 64 288 80 490 73 88 -3 192 -12 230 -21 66 -15 260 -78 296 -96 15 -8 17 65 22 914 4 752 8 952 21 1087 38 380 85 533 178 581 107 55 199 -33 247 -236 20 -83 55 -305 65 -410 32 -340 43 -477 70 -895 48 -738 65 -1068 72 -1430 l6 -295 34 -110 c38 -120 91 -348 123 -520 18 -103 26 -154 66 -460 44 -325 148 -823 299 -1435 20 -80 50 -194 66 -255 107 -389 164 -667 190 -920 24 -242 29 -271 24 -130 -9 243 -60 565 -140 880 -161 633 -249 1016 -339 1475 -20 106 -61 371 -80 530 -41 335 -108 664 -179 881 -23 72 -25 90 -27 325 -3 316 -22 729 -59 1314 -6 85 -13 191 -15 235 -50 815 -104 1229 -181 1390 -26 55 -36 68 -76 103 -27 25 -98 47 -98 31 0 -5 6 -9 14 -9 8 0 17 -3 19 -8 3 -4 -11 -7 -31 -6 -53 1 -56 2 -42 19 7 8 11 15 9 14 -2 0 -16 -4 -31 -9z m-2793 -6740 c3 -5 13 -6 22 -3 10 4 14 2 9 -5 -4 -6 1 -10 11 -10 10 0 27 -3 38 -7 16 -5 17 -5 5 4 -13 9 -12 11 3 11 10 0 15 5 12 10 -3 6 0 10 8 10 12 0 7 -18 -18 -79 -28 -65 -34 -94 -35 -158 -1 -43 1 -87 5 -98 18 -52 26 -66 36 -59 8 4 8 0 0 -15 -14 -25 -23 -28 -14 -4 5 12 2 15 -10 10 -9 -3 -16 -3 -15 1 4 12 -26 52 -39 52 -6 0 -15 9 -18 20 -3 11 -12 20 -20 20 -8 0 -17 9 -20 20 -3 11 -11 20 -16 20 -6 0 -8 4 -4 9 3 5 1 12 -3 15 -5 3 -7 17 -4 31 2 15 0 25 -7 25 -6 0 -11 5 -11 11 0 5 5 7 10 4 17 -11 11 10 -10 32 -10 12 -28 24 -40 28 -11 3 -20 12 -20 19 0 17 35 48 43 39 4 -3 7 -1 7 5 0 7 10 12 23 12 18 0 19 2 7 10 -12 8 -11 10 7 10 12 0 25 5 28 10 8 13 22 13 30 0z"></path> <path d="M3327 3950 c-38 -45 -51 -96 -52 -200 0 -79 4 -103 23 -141 42 -87 90 -104 143 -53 78 74 80 316 4 398 -35 37 -85 36 -118 -4z m115 -44 c28 -50 35 -185 14 -258 -20 -70 -44 -94 -83 -80 -16 5 -27 16 -27 25 1 10 -4 13 -13 10 -12 -5 -14 -1 -9 14 4 12 1 25 -7 31 -10 8 -13 39 -12 109 1 104 16 151 58 184 19 15 23 16 44 2 13 -9 29 -25 35 -37z"></path> <path d="M4391 3956 c-79 -84 -81 -310 -2 -398 108 -121 225 141 150 339 -29 77 -103 107 -148 59z m87 -22 c12 -8 22 -24 22 -35 0 -14 4 -18 13 -13 7 5 6 0 -3 -11 -8 -10 -10 -16 -3 -12 33 20 25 -217 -10 -260 -5 -7 -6 -13 -1 -13 5 -1 -3 -7 -17 -15 -40 -21 -67 -9 -90 43 -28 61 -35 146 -18 213 8 30 14 59 14 66 0 18 36 53 54 53 9 0 27 -7 39 -16z"></path> <path d="M3692 3360 c-56 -8 -102 -33 -102 -53 0 -24 48 -59 115 -83 36 -13 74 -24 85 -24 15 0 20 -10 25 -47 17 -134 51 -203 100 -203 46 0 96 105 97 205 1 41 2 43 37 48 60 8 153 50 174 79 25 33 13 52 -42 69 -44 14 -416 21 -489 9z m286 -23 c53 -2 78 0 70 6 -9 6 -7 7 7 2 11 -4 31 -9 45 -12 14 -2 34 -6 45 -8 11 -2 22 -4 25 -5 3 -1 8 -2 12 -1 4 0 6 -8 5 -19 -1 -18 -5 -21 -23 -19 -3 0 -11 -6 -17 -14 -7 -8 -24 -17 -39 -21 -73 -16 -84 -20 -100 -38 -9 -10 -21 -49 -27 -86 -13 -76 -29 -122 -43 -122 -5 0 -6 -5 -2 -11 5 -8 1 -8 -13 0 -11 6 -23 8 -27 4 -10 -10 -37 67 -48 135 -9 58 -29 95 -54 98 -28 4 -124 38 -119 42 3 3 -7 11 -22 17 l-28 11 26 17 c16 11 54 19 99 22 40 2 74 5 76 7 2 2 18 3 36 1 18 -1 70 -4 116 -6z"></path> </g> </svg>